<svg width="171" height="240" viewBox="0 0 171 240" fill="none" xmlns="http://www.w3.org/2000/svg">
<path fill-rule="evenodd" clip-rule="evenodd" d="M122.672 58.8514C122.672 58.8514 109.022 49.7993 109.453 30.6079C109.872 11.4136 122.097 0 122.097 0C122.097 0 137.798 10.9924 137.373 29.7253C136.958 48.4252 122.672 58.8514 122.672 58.8514ZM105.965 99.9891C105.965 99.9891 89.3596 94.0737 83.7167 76.2419C78.0847 58.413 90.0873 43.3663 90.0873 43.3663C90.0873 43.3663 104.983 50.794 110.783 69.0923C116.558 87.3958 105.965 99.9891 105.965 99.9891ZM135.314 98.2741C135.314 98.2741 128.967 83.1081 139.939 67.3494C150.904 51.5769 167.366 48.88 167.366 48.88C167.366 48.88 174.319 66.7789 163.615 82.1494C152.944 97.5288 135.314 98.2741 135.314 98.2741ZM90.0552 149.679C90.0552 149.679 102.19 138.559 98.8433 119.655C95.4937 100.762 81.6922 91.4451 81.6922 91.4451C81.6922 91.4451 67.8539 104.798 71.0827 123.222C74.3502 141.634 90.0552 149.679 90.0552 149.679ZM56.8413 122.94C56.8413 122.94 69.6949 133.513 71.2584 152.671C72.8139 171.816 59.6992 181.73 59.6992 181.73C59.6992 181.73 44.852 172.239 43.3288 153.587C41.8056 134.935 56.8413 122.94 56.8413 122.94ZM12.3456 179.857C8.44862 198.18 19.9486 211.563 19.9486 211.563C19.9486 211.563 35.3543 205.847 39.3564 187.045C43.3476 168.24 34.0998 154.386 34.0998 154.386C34.0998 154.386 16.2536 161.536 12.3456 179.857ZM138.536 108.371C123.451 120.199 125.033 136.579 125.033 136.579C125.033 136.579 142.074 141.089 156.813 129.546C171.548 118.013 170.159 98.8188 170.159 98.8188C170.159 98.8188 153.657 96.5402 138.536 108.371ZM102.043 172.534C102.043 172.534 104.125 156.202 121.465 148.007C138.809 139.838 154.372 145.746 154.372 145.746C154.372 145.746 151.466 164.794 134.566 172.752C117.666 180.71 102.043 172.534 102.043 172.534ZM100.231 182.452C81.2524 184.983 74.3472 199.942 74.3472 199.942C74.3472 199.942 86.7378 212.502 105.245 210.022C123.738 207.55 132.252 190.273 132.252 190.273C132.252 190.273 119.235 179.916 100.231 182.452ZM62.4432 211.217C81.5781 210.992 93.3045 222.832 93.3045 222.832C93.3045 222.832 82.8211 238.958 64.1562 239.226C45.5061 239.439 34.7131 225.478 34.7131 225.478C34.7131 225.478 43.3163 211.456 62.4432 211.217ZM127.049 67.1199L118.066 68.9043C118.786 72.6113 133.95 160.769 0 225.108L3.90456 233.359C144.629 165.795 127.232 68.1006 127.049 67.1199Z" fill="url(#paint0_linear_153601_447)"/>
<defs>
<linearGradient id="paint0_linear_153601_447" x1="87.2956" y1="0" x2="87.2956" y2="239.228" gradientUnits="userSpaceOnUse">
<stop stop-color="#DCDDE0"/>
<stop offset="1" stop-color="#DCDDE0" stop-opacity="0"/>
</linearGradient>
</defs>
</svg>
